<?xml version="1.0" standalone="no"?><!DOCTYPE svg PUBLIC "-//W3C//DTD SVG 1.1//EN" "http://www.w3.org/Graphics/SVG/1.1/DTD/svg11.dtd"><svg class="icon" width="200px" height="200.00px" viewBox="0 0 1024 1024" version="1.1" xmlns="http://www.w3.org/2000/svg"><path fill="#333333" d="M516.297792 66.718097C272.858599 66.718097 74.750874 264.825822 74.750874 508.367343c0 243.439193 198.107725 441.649246 441.546917 441.649246 243.439193 0 441.546917-198.107725 441.546917-441.649246C957.947037 264.825822 759.839312 66.718097 516.297792 66.718097L516.297792 66.718097zM516.297792 888.005596c-209.363845 0-379.638253-170.274408-379.638253-379.638253 0-209.363845 170.274408-379.638253 379.638253-379.638253 209.261517 0 379.638253 170.274408 379.638253 379.638253C895.936045 717.62886 725.661637 888.005596 516.297792 888.005596L516.297792 888.005596zM325.250724 450.244829c-32.02878 0-58.122514 25.991406-58.122514 58.122514 0 32.131108 25.991406 58.122514 58.122514 58.122514 32.02878 0 58.122514-25.991406 58.122514-58.122514C383.373239 476.236235 357.279504 450.244829 325.250724 450.244829L325.250724 450.244829zM516.297792 450.244829c-32.02878 0-58.122514 25.991406-58.122514 58.122514 0 32.131108 25.991406 58.122514 58.122514 58.122514 32.131108 0 58.122514-25.991406 58.122514-58.122514C574.420306 476.236235 548.4289 450.244829 516.297792 450.244829L516.297792 450.244829zM707.447187 450.244829c-32.02878 0-58.122514 25.991406-58.122514 58.122514 0 32.131108 25.991406 58.122514 58.122514 58.122514 32.02878 0 58.122514-25.991406 58.122514-58.122514C765.569701 476.236235 739.475967 450.244829 707.447187 450.244829L707.447187 450.244829z" /></svg>