<?xml version="1.0" standalone="no"?><!DOCTYPE svg PUBLIC "-//W3C//DTD SVG 1.1//EN" "http://www.w3.org/Graphics/SVG/1.1/DTD/svg11.dtd"><svg class="icon" width="200px" height="200.00px" viewBox="0 0 1024 1024" version="1.1" xmlns="http://www.w3.org/2000/svg"><path fill="#333333" d="M593.242353 516.924235c76.860235-35.373176 130.409412-113.076706 130.409412-203.083294 0-123.226353-100.246588-223.472941-223.472941-223.472941s-223.457882 100.246588-223.457882 223.472941c0 90.021647 53.534118 167.725176 130.409412 203.083294C220.611765 559.375059 80.941176 726.422588 80.941176 925.620706c0 10.782118 8.749176 19.531294 19.531294 19.531294s19.531294-8.749176 19.531294-19.531294c0-209.618824 170.541176-380.16 380.16-380.16 209.618824 0 380.16 170.541176 380.16 380.16 0 10.782118 8.749176 19.531294 19.546353 19.531294 10.782118 0 19.531294-8.749176 19.531294-19.531294C919.416471 726.422588 779.745882 559.375059 593.242353 516.924235zM315.783529 313.825882c0-101.677176 82.718118-184.395294 184.395294-184.395294S684.574118 212.148706 684.574118 313.825882c0 101.662118-82.718118 184.395294-184.395294 184.395294S315.783529 415.503059 315.783529 313.825882z" /></svg>