<?xml version="1.0" standalone="no"?><!DOCTYPE svg PUBLIC "-//W3C//DTD SVG 1.1//EN" "http://www.w3.org/Graphics/SVG/1.1/DTD/svg11.dtd"><svg class="icon" width="200px" height="200.00px" viewBox="0 0 1024 1024" version="1.1" xmlns="http://www.w3.org/2000/svg"><path fill="#333333" d="M741.67 232.008c27.1 0 49.153 22.202 49.153 49.483 0 27.281-22.053 49.483-49.153 49.483s-49.154-22.202-49.154-49.483 22.054-49.483 49.154-49.483m0-32.99c-45.36 0-82.142 36.932-82.142 82.472s36.783 82.471 82.142 82.471 82.142-36.93 82.142-82.471-36.783-82.471-82.142-82.471z"  /><path fill="#333333" d="M906.282 116.547V486.86c0 3.976-2.178 9.765-4.437 12.024L497.57 903.374c-3.48 3.481-7.389 4.009-9.402 4.009-2.11 0-5.162-0.544-7.72-3.1L119.011 542.644c-4.487-4.486-4.074-12.19 0.907-17.171l404.275-404.539c2.21-2.21 7.785-4.388 11.645-4.388h370.444M536.728 83.51c-3.38 0-23.191 1.435-35.891 14.136L96.594 502.15c-17.863 17.863-18.259 46.448-0.908 63.816L457.11 927.605c8.51 8.527 19.727 12.766 31.042 12.766 11.743 0 23.62-4.569 32.724-13.673l404.258-404.49c13.905-13.904 14.334-36.567 14.169-36.567-0.033 0-0.033 0.643-0.033 2.094V116.003c0-17.863-14.58-32.444-32.427-32.444h-371.73c2.21 0 2.59-0.049 1.616-0.049zM623.95 875.515h234.532c8.791 0 15.934-7.125 15.934-15.934v-234.68l31.867-31.866v282.481c0 17.6-14.268 31.85-31.85 31.85H592.116l31.834-31.85z"  /></svg>