<?xml version="1.0" standalone="no"?><!DOCTYPE svg PUBLIC "-//W3C//DTD SVG 1.1//EN" "http://www.w3.org/Graphics/SVG/1.1/DTD/svg11.dtd"><svg class="icon" width="200px" height="200.00px" viewBox="0 0 1024 1024" version="1.1" xmlns="http://www.w3.org/2000/svg"><path fill="#333333" d="M750.674747 154.892929H272.032323v-56.888889c0-6.723232 5.430303-12.153535 12.153536-12.153535h454.335353c6.723232 0 12.153535 5.430303 12.153535 12.153535v56.888889z m0 580.266667H272.032323V189.026263h478.642424v546.133333z m0 192.775758c0 6.723232-5.430303 12.153535-12.153535 12.153535H284.185859c-6.723232 0-12.153535-5.430303-12.153536-12.153535V769.292929h478.642424v158.642425zM738.521212 51.717172H284.185859C258.585859 51.717172 237.89899 72.40404 237.89899 98.00404v829.931314c0 25.6 20.686869 46.286869 46.286869 46.286868h454.335353c25.6 0 46.286869-20.686869 46.286869-46.286868V98.00404C784.937374 72.40404 764.121212 51.717172 738.521212 51.717172zM460.153535 837.559596h102.529293v34.133333h-102.529293v-34.133333z" /></svg>