<?xml version="1.0" standalone="no"?><!DOCTYPE svg PUBLIC "-//W3C//DTD SVG 1.1//EN" "http://www.w3.org/Graphics/SVG/1.1/DTD/svg11.dtd"><svg class="icon" width="200px" height="200.00px" viewBox="0 0 1024 1024" version="1.1" xmlns="http://www.w3.org/2000/svg"><path fill="#333333" d="M749.592768 955.709661l-491.094878 0c-86.46835 0-156.814512-71.095221-156.814512-158.481478l0.623193-307.188334c0-60.461023 49.225121-109.686145 109.730147-109.686145l585.907267 0c60.506049 0 109.730147 49.225121 109.730147 109.730147l-1.2689 307.23336C906.406257 884.614439 836.060095 955.709661 749.592768 955.709661zM212.036719 424.02432c-36.424584 0-66.058508 29.633924-66.058508 66.059532l-0.623193 307.187311c0 63.261812 50.755987 114.764813 113.142873 114.764813l491.094878 0c62.386886 0 113.140827-51.503001 113.140827-114.808816l1.2689-307.234383c0-36.334533-29.633924-65.968457-66.059532-65.968457L212.036719 424.02432z"  /><path fill="#333333" d="M276.774139 398.208351 233.102501 398.208351l0-86.850044c0-66.660212 25.962302-129.3326 73.103972-176.471201C353.348142 87.74953 416.021553 61.790298 482.682789 61.790298l37.008892 0c66.669422 0 129.345903 25.960255 176.484504 73.097832 47.136553 47.136553 73.094762 109.807918 73.094762 176.470177l0 82.579787-43.671639 0 0-82.579787c0-113.531729-92.369757-205.897394-205.907627-205.897394l-37.008892 0c-113.537869 0-205.90865 92.364641-205.90865 205.897394L276.774139 398.208351z"  /><path fill="#333333" d="M580.007395 618.856703c0-42.479487-34.429137-76.907601-76.907601-76.907601-42.435485 0-76.863598 34.429137-76.863598 76.907601 0 34.473139 22.841218 63.319118 54.088896 73.082482l0 96.52438c0 13.544481 10.18599 24.531719 22.774703 24.531719s22.774703-10.986215 22.774703-24.531719l0-96.52438C557.166177 682.175821 580.007395 653.328819 580.007395 618.856703z"  /></svg>